<?xml version="1.0" encoding="UTF-8"?>
<svg xmlns="http://www.w3.org/2000/svg" xmlns:xlink="http://www.w3.org/1999/xlink" width="48px" height="48px" viewBox="0 0 48 48" version="1.1">
<g id="surface1">
<path style=" stroke:none;fill-rule:nonzero;fill:rgb(0%,56.862748%,88.627452%);fill-opacity:1;" d="M 48 24 C 48 10.746094 37.253906 0 24 0 C 10.746094 0 0 10.746094 0 24 C 0 37.253906 10.746094 48 24 48 C 37.253906 48 48 37.253906 48 24 Z M 48 24 "/>
<path style=" stroke:none;fill-rule:nonzero;fill:rgb(100%,100%,100%);fill-opacity:1;" d="M 38.78125 21.632812 C 38.703125 21.570312 38.023438 21.0625 36.589844 21.0625 C 36.210938 21.0625 35.832031 21.089844 35.457031 21.160156 C 35.179688 19.25 33.605469 18.324219 33.535156 18.28125 L 33.148438 18.054688 L 32.898438 18.421875 C 32.578125 18.914062 32.347656 19.453125 32.210938 20.023438 C 31.953125 21.113281 32.109375 22.132812 32.664062 23.007812 C 31.996094 23.375 30.921875 23.46875 30.707031 23.476562 L 12.984375 23.476562 C 12.519531 23.476562 12.144531 23.851562 12.144531 24.3125 C 12.125 25.867188 12.390625 27.40625 12.917969 28.867188 C 13.527344 30.46875 14.4375 31.644531 15.617188 32.367188 C 16.941406 33.179688 19.09375 33.640625 21.535156 33.640625 C 22.636719 33.648438 23.738281 33.542969 24.820312 33.34375 C 26.324219 33.066406 27.773438 32.539062 29.105469 31.785156 C 30.203125 31.148438 31.191406 30.34375 32.03125 29.390625 C 33.429688 27.800781 34.269531 26.03125 34.894531 24.460938 L 35.140625 24.460938 C 36.679688 24.460938 37.625 23.84375 38.148438 23.328125 C 38.492188 23 38.765625 22.601562 38.9375 22.15625 L 39.046875 21.835938 Z M 14.625 22.964844 L 17 22.964844 C 17.113281 22.964844 17.207031 22.871094 17.207031 22.757812 L 17.207031 20.644531 C 17.207031 20.53125 17.113281 20.4375 17 20.433594 L 14.625 20.433594 C 14.511719 20.433594 14.417969 20.527344 14.417969 20.640625 L 14.417969 22.757812 C 14.417969 22.875 14.511719 22.964844 14.625 22.964844 M 17.902344 22.964844 L 20.277344 22.964844 C 20.390625 22.964844 20.484375 22.871094 20.484375 22.757812 L 20.484375 20.644531 C 20.484375 20.53125 20.390625 20.4375 20.277344 20.433594 L 17.902344 20.433594 C 17.785156 20.433594 17.691406 20.527344 17.691406 20.644531 L 17.691406 22.757812 C 17.691406 22.875 17.785156 22.964844 17.902344 22.964844 M 21.21875 22.96875 L 23.597656 22.96875 C 23.710938 22.96875 23.804688 22.875 23.804688 22.761719 L 23.804688 20.648438 C 23.804688 20.535156 23.710938 20.441406 23.597656 20.4375 L 21.21875 20.4375 C 21.109375 20.4375 21.015625 20.53125 21.015625 20.644531 L 21.015625 22.761719 C 21.015625 22.875 21.109375 22.964844 21.21875 22.96875 M 24.507812 22.96875 L 26.882812 22.96875 C 26.996094 22.96875 27.089844 22.875 27.09375 22.761719 L 27.09375 20.648438 C 27.09375 20.53125 27 20.4375 26.882812 20.4375 L 24.507812 20.4375 C 24.394531 20.4375 24.300781 20.53125 24.300781 20.644531 L 24.300781 22.761719 C 24.300781 22.875 24.390625 22.96875 24.507812 22.96875 M 17.898438 19.921875 L 20.273438 19.921875 C 20.386719 19.921875 20.480469 19.828125 20.480469 19.710938 L 20.480469 17.597656 C 20.480469 17.484375 20.386719 17.390625 20.273438 17.390625 L 17.898438 17.390625 C 17.78125 17.390625 17.691406 17.484375 17.6875 17.597656 L 17.6875 19.710938 C 17.691406 19.828125 17.785156 19.921875 17.898438 19.921875 M 21.21875 19.921875 L 23.597656 19.921875 C 23.710938 19.921875 23.804688 19.828125 23.804688 19.710938 L 23.804688 17.597656 C 23.804688 17.484375 23.710938 17.390625 23.597656 17.390625 L 21.21875 17.390625 C 21.109375 17.390625 21.015625 17.484375 21.015625 17.597656 L 21.015625 19.710938 C 21.015625 19.828125 21.109375 19.921875 21.21875 19.921875 M 24.507812 19.921875 L 26.882812 19.921875 C 27 19.921875 27.089844 19.828125 27.09375 19.710938 L 27.09375 17.597656 C 27.09375 17.480469 27 17.390625 26.882812 17.390625 L 24.507812 17.390625 C 24.394531 17.390625 24.300781 17.484375 24.300781 17.597656 L 24.300781 19.710938 C 24.300781 19.828125 24.390625 19.921875 24.507812 19.921875 M 24.507812 16.878906 L 26.882812 16.878906 C 27 16.878906 27.09375 16.785156 27.09375 16.667969 L 27.09375 14.550781 C 27.09375 14.4375 27 14.34375 26.882812 14.34375 L 24.507812 14.34375 C 24.394531 14.34375 24.300781 14.4375 24.300781 14.550781 L 24.300781 16.667969 C 24.300781 16.785156 24.390625 16.878906 24.507812 16.878906 M 27.816406 22.96875 L 30.191406 22.96875 C 30.304688 22.96875 30.398438 22.875 30.398438 22.761719 L 30.398438 20.648438 C 30.398438 20.53125 30.304688 20.441406 30.191406 20.4375 L 27.816406 20.4375 C 27.703125 20.4375 27.609375 20.53125 27.609375 20.644531 L 27.609375 22.761719 C 27.609375 22.875 27.703125 22.96875 27.816406 22.96875 "/>
</g>
</svg>
