<?xml version="1.0" encoding="UTF-8"?>
<svg xmlns="http://www.w3.org/2000/svg" xmlns:xlink="http://www.w3.org/1999/xlink" width="48px" height="48px" viewBox="0 0 48 48" version="1.1">
<g id="surface1">
<path style=" stroke:none;fill-rule:evenodd;fill:rgb(24.313726%,45.882353%,76.47059%);fill-opacity:1;" d="M 24 0.5 C 10.746094 0.5 0 11.285156 0 24.597656 C 0 35.242188 6.875 44.273438 16.414062 47.457031 C 17.613281 47.679688 18.050781 46.9375 18.050781 46.296875 C 18.050781 45.726562 18.03125 44.210938 18.019531 42.199219 C 11.34375 43.65625 9.933594 38.96875 9.933594 38.96875 C 8.84375 36.1875 7.269531 35.445312 7.269531 35.445312 C 5.089844 33.949219 7.433594 33.980469 7.433594 33.980469 C 9.84375 34.148438 11.109375 36.464844 11.109375 36.464844 C 13.253906 40.144531 16.726562 39.082031 18.097656 38.464844 C 18.3125 36.90625 18.933594 35.847656 19.621094 35.242188 C 14.289062 34.636719 8.6875 32.570312 8.6875 23.335938 C 8.6875 20.707031 9.621094 18.554688 11.160156 16.871094 C 10.910156 16.257812 10.085938 13.8125 11.390625 10.492188 C 11.390625 10.492188 13.410156 9.847656 17.992188 12.964844 C 19.90625 12.429688 21.960938 12.160156 24 12.152344 C 26.039062 12.160156 28.09375 12.429688 30.011719 12.964844 C 34.589844 9.847656 36.601562 10.492188 36.601562 10.492188 C 37.914062 13.8125 37.089844 16.257812 36.839844 16.871094 C 38.378906 18.554688 39.308594 20.707031 39.308594 23.335938 C 39.308594 32.589844 33.699219 34.628906 28.351562 35.226562 C 29.210938 35.96875 29.980469 37.4375 29.980469 39.6875 C 29.980469 42.910156 29.949219 45.507812 29.949219 46.296875 C 29.949219 46.941406 30.382812 47.691406 31.601562 47.457031 C 41.128906 44.261719 48 35.238281 48 24.597656 C 48 11.285156 37.253906 0.5 24 0.5 "/>
</g>
</svg>
