<?xml version="1.0" encoding="UTF-8"?>
<svg xmlns="http://www.w3.org/2000/svg" xmlns:xlink="http://www.w3.org/1999/xlink" width="48px" height="48px" viewBox="0 0 48 48" version="1.1">
<g id="surface1">
<path style=" stroke:none;fill-rule:nonzero;fill:rgb(77.64706%,23.921569%,7.843138%);fill-opacity:1;" d="M 40.632812 23.679688 C 40.632812 21.519531 38.882812 19.769531 36.722656 19.769531 C 36.585938 19.769531 36.449219 19.777344 36.3125 19.789062 L 41.683594 3.953125 L 18.863281 3.953125 L 24.226562 19.777344 C 24.148438 19.777344 24.070312 19.769531 23.988281 19.769531 C 22.0625 19.769531 20.417969 21.171875 20.121094 23.078125 C 19.828125 24.984375 20.964844 26.820312 22.804688 27.40625 C 21.972656 28.835938 20.9375 30.140625 19.730469 31.273438 C 18.160156 32.773438 16.292969 33.933594 14.25 34.675781 C 11.875 33.546875 10.78125 30.773438 11.753906 28.328125 C 11.867188 28.058594 11.984375 27.785156 12.097656 27.511719 C 13.890625 27.089844 15.148438 25.46875 15.109375 23.625 C 15.070312 21.777344 13.746094 20.210938 11.933594 19.867188 C 10.121094 19.519531 8.3125 20.484375 7.597656 22.1875 C 6.878906 23.886719 7.449219 25.855469 8.960938 26.914062 C 7.714844 29.175781 6.761719 31.589844 6.128906 34.09375 C 5.597656 37.296875 6.128906 40.695312 8.894531 42.613281 C 15.34375 47.085938 22.347656 39.84375 29.730469 38.023438 C 32.40625 37.363281 35.34375 37.46875 37.699219 36.105469 C 39.425781 35.125 40.621094 33.425781 40.96875 31.472656 C 41.285156 29.617188 40.835938 27.710938 39.722656 26.191406 C 40.3125 25.488281 40.632812 24.601562 40.632812 23.683594 Z M 27.898438 23.699219 L 27.898438 23.6875 C 27.902344 22.316406 27.1875 21.046875 26.015625 20.339844 L 30.28125 11.699219 L 34.558594 20.421875 C 33.46875 21.144531 32.8125 22.367188 32.816406 23.675781 C 32.816406 23.703125 32.816406 23.730469 32.816406 23.761719 Z M 27.898438 23.699219 "/>
<path style=" stroke:none;fill-rule:nonzero;fill:rgb(100%,100%,100%);fill-opacity:1;" d="M 41.589844 23.679688 C 41.585938 21.339844 39.921875 19.335938 37.625 18.898438 L 43.015625 3 L 17.535156 3 L 22.933594 18.929688 C 21.003906 19.363281 19.53125 20.917969 19.199219 22.867188 C 18.871094 24.8125 19.753906 26.769531 21.433594 27.808594 C 20.753906 28.816406 19.964844 29.746094 19.082031 30.578125 C 17.710938 31.886719 16.101562 32.921875 14.339844 33.621094 C 12.632812 32.632812 11.910156 30.539062 12.640625 28.703125 L 12.699219 28.5625 L 12.8125 28.300781 C 14.867188 27.589844 16.199219 25.601562 16.078125 23.429688 C 15.957031 21.257812 14.410156 19.433594 12.289062 18.953125 C 10.167969 18.476562 7.988281 19.460938 6.945312 21.367188 C 5.902344 23.277344 6.253906 25.644531 7.800781 27.167969 C 7.640625 27.515625 7.46875 27.867188 7.292969 28.226562 C 6.320312 30.015625 5.613281 31.9375 5.191406 33.929688 C 4.496094 38.128906 5.621094 41.492188 8.359375 43.390625 C 9.828125 44.441406 11.59375 45.003906 13.402344 45 C 16.597656 45 19.835938 43.394531 23 41.820312 C 25.214844 40.617188 27.546875 39.652344 29.964844 38.945312 C 30.828125 38.730469 31.71875 38.601562 32.664062 38.464844 C 34.585938 38.3125 36.460938 37.789062 38.183594 36.925781 C 40.152344 35.800781 41.519531 33.859375 41.914062 31.628906 C 42.234375 29.757812 41.863281 27.832031 40.878906 26.210938 C 41.34375 25.449219 41.589844 24.570312 41.589844 23.675781 Z M 39.679688 23.679688 C 39.679688 25.3125 38.355469 26.632812 36.722656 26.632812 C 35.09375 26.632812 33.769531 25.3125 33.769531 23.679688 C 33.769531 22.046875 35.09375 20.722656 36.722656 20.722656 C 38.355469 20.726562 39.679688 22.046875 39.679688 23.679688 Z M 40.351562 4.910156 L 35.589844 18.949219 C 35.386719 19 35.183594 19.0625 34.988281 19.136719 L 30.285156 9.535156 L 25.570312 19.078125 C 25.363281 19.007812 25.152344 18.953125 24.941406 18.910156 L 20.195312 4.910156 Z M 23.988281 20.722656 C 25.621094 20.722656 26.945312 22.046875 26.945312 23.679688 C 26.945312 25.3125 25.621094 26.632812 23.988281 26.632812 C 22.359375 26.632812 21.035156 25.3125 21.035156 23.679688 C 21.035156 22.046875 22.359375 20.726562 23.988281 20.722656 Z M 11.207031 20.753906 C 12.839844 20.753906 14.160156 22.078125 14.160156 23.710938 C 14.15625 25.34375 12.832031 26.664062 11.199219 26.664062 C 9.566406 26.660156 8.246094 25.332031 8.25 23.699219 C 8.25 22.070312 9.574219 20.746094 11.203125 20.746094 Z M 40.03125 31.304688 C 39.730469 32.976562 38.703125 34.429688 37.226562 35.273438 C 35.710938 36.007812 34.070312 36.449219 32.390625 36.574219 C 31.441406 36.710938 30.464844 36.851562 29.503906 37.089844 C 26.953125 37.828125 24.488281 38.839844 22.15625 40.109375 C 17.410156 42.464844 13.304688 44.503906 9.445312 41.824219 C 6.617188 39.863281 6.746094 36.234375 7.078125 34.242188 C 7.464844 32.433594 8.113281 30.6875 9 29.0625 C 9.136719 28.78125 9.273438 28.5 9.40625 28.226562 C 9.808594 28.386719 10.230469 28.492188 10.660156 28.539062 C 9.875 31.324219 11.203125 34.273438 13.8125 35.523438 L 14.179688 35.710938 L 14.566406 35.574219 C 16.734375 34.792969 18.714844 33.566406 20.378906 31.972656 C 21.480469 30.9375 22.449219 29.769531 23.257812 28.496094 C 25.386719 28.820312 27.476562 27.703125 28.390625 25.753906 C 29.304688 23.804688 28.828125 21.484375 27.21875 20.054688 L 30.273438 13.875 L 33.363281 20.171875 C 31.539062 21.929688 31.371094 24.789062 32.972656 26.75 C 34.574219 28.707031 37.410156 29.109375 39.496094 27.671875 C 40.050781 28.796875 40.238281 30.070312 40.027344 31.304688 Z M 40.03125 31.304688 "/>
</g>
</svg>
