<?xml version="1.0" encoding="UTF-8"?>
<svg xmlns="http://www.w3.org/2000/svg" xmlns:xlink="http://www.w3.org/1999/xlink" width="48px" height="48px" viewBox="0 0 48 48" version="1.1">
<g id="surface1">
<path style=" stroke:none;fill-rule:nonzero;fill:rgb(93.333334%,31.764707%,23.137255%);fill-opacity:1;" d="M 3.878906 26.121094 C 2.707031 24.949219 2.707031 23.050781 3.878906 21.878906 L 21.878906 3.878906 C 23.050781 2.707031 24.949219 2.707031 26.121094 3.878906 L 44.121094 21.878906 C 45.292969 23.050781 45.292969 24.949219 44.121094 26.121094 L 26.121094 44.121094 C 24.949219 45.292969 23.050781 45.292969 21.878906 44.121094 Z M 3.878906 26.121094 "/>
<path style=" stroke:none;fill-rule:nonzero;fill:rgb(100%,100%,100%);fill-opacity:1;" d="M 18.222656 7.59375 L 16.402344 9.414062 L 21.109375 14.125 C 20.917969 14.53125 20.8125 14.988281 20.8125 15.46875 C 20.8125 16.832031 21.667969 17.996094 22.875 18.453125 L 22.875 29.96875 C 21.667969 30.425781 20.8125 31.589844 20.8125 32.953125 C 20.8125 34.714844 22.238281 36.140625 24 36.140625 C 25.761719 36.140625 27.1875 34.714844 27.1875 32.953125 C 27.1875 31.714844 26.480469 30.644531 25.453125 30.113281 L 25.453125 18.46875 L 29.953125 22.96875 C 29.773438 23.367188 29.671875 23.8125 29.671875 24.28125 C 29.671875 26.042969 31.097656 27.46875 32.859375 27.46875 C 34.621094 27.46875 36.046875 26.042969 36.046875 24.28125 C 36.046875 22.519531 34.621094 21.09375 32.859375 21.09375 C 32.515625 21.09375 32.1875 21.148438 31.878906 21.246094 L 27.042969 16.414062 C 27.136719 16.113281 27.1875 15.796875 27.1875 15.46875 C 27.1875 13.707031 25.761719 12.28125 24 12.28125 C 23.671875 12.28125 23.351562 12.332031 23.054688 12.421875 Z M 18.222656 7.59375 "/>
</g>
</svg>
