<?xml version="1.0" encoding="UTF-8"?>
<svg xmlns="http://www.w3.org/2000/svg" xmlns:xlink="http://www.w3.org/1999/xlink" width="48px" height="48px" viewBox="0 0 48 48" version="1.1">
<defs>
<linearGradient id="linear0" gradientUnits="userSpaceOnUse" x1="16.0578" y1="6.30617" x2="15.8364" y2="9.30598" gradientTransform="matrix(1.5,0,0,1.5,0,0)">
<stop offset="0" style="stop-color:rgb(100%,100%,100%);stop-opacity:0.8;"/>
<stop offset="1" style="stop-color:rgb(100%,100%,100%);stop-opacity:0;"/>
</linearGradient>
<linearGradient id="linear1" gradientUnits="userSpaceOnUse" x1="12.8966" y1="22.6721" x2="11.2506" y2="17.271601" gradientTransform="matrix(1.5,0,0,1.5,0,0)">
<stop offset="0" style="stop-color:rgb(100%,93.333333%,84.313725%);stop-opacity:1;"/>
<stop offset="1" style="stop-color:rgb(74.117647%,74.901961%,76.078431%);stop-opacity:1;"/>
</linearGradient>
<linearGradient id="linear2" gradientUnits="userSpaceOnUse" x1="12.8966" y1="22.6721" x2="11.2506" y2="17.271601" gradientTransform="matrix(1.5,0,0,1.5,0,0)">
<stop offset="0" style="stop-color:rgb(100%,93.333333%,84.313725%);stop-opacity:1;"/>
<stop offset="1" style="stop-color:rgb(74.117647%,74.901961%,76.078431%);stop-opacity:1;"/>
</linearGradient>
<linearGradient id="linear3" gradientUnits="userSpaceOnUse" x1="16.6681" y1="9.65546" x2="16.5748" y2="10.3542" gradientTransform="matrix(1.5,0,0,1.5,0,0)">
<stop offset="0" style="stop-color:rgb(100%,100%,100%);stop-opacity:0.65098;"/>
<stop offset="1" style="stop-color:rgb(100%,100%,100%);stop-opacity:0;"/>
</linearGradient>
<linearGradient id="linear4" gradientUnits="userSpaceOnUse" x1="14.434" y1="9.78294" x2="14.5344" y2="10.3483" gradientTransform="matrix(1.5,0,0,1.5,0,0)">
<stop offset="0" style="stop-color:rgb(100%,100%,100%);stop-opacity:0.65098;"/>
<stop offset="1" style="stop-color:rgb(100%,100%,100%);stop-opacity:0;"/>
</linearGradient>
<linearGradient id="linear5" gradientUnits="userSpaceOnUse" x1="15.7613" y1="15.6306" x2="15.778" y2="19.627199" gradientTransform="matrix(1.5,0,0,1.5,0,0)">
<stop offset="0" style="stop-color:rgb(100%,100%,100%);stop-opacity:0.8;"/>
<stop offset="1" style="stop-color:rgb(100%,100%,100%);stop-opacity:0;"/>
</linearGradient>
<linearGradient id="linear6" gradientUnits="userSpaceOnUse" x1="15.8504" y1="13.1247" x2="15.8688" y2="14.7138" gradientTransform="matrix(1.5,0,0,1.5,0,0)">
<stop offset="0" style="stop-color:rgb(100%,100%,100%);stop-opacity:0.65098;"/>
<stop offset="1" style="stop-color:rgb(100%,100%,100%);stop-opacity:0;"/>
</linearGradient>
<linearGradient id="linear7" gradientUnits="userSpaceOnUse" x1="11.72" y1="14.1055" x2="11.72" y2="19.937201" gradientTransform="matrix(1.5,0,0,1.5,0,0)">
<stop offset="0" style="stop-color:rgb(100%,100%,100%);stop-opacity:0.65098;"/>
<stop offset="1" style="stop-color:rgb(100%,100%,100%);stop-opacity:0;"/>
</linearGradient>
<linearGradient id="linear8" gradientUnits="userSpaceOnUse" x1="21.033001" y1="13.5359" x2="21.0308" y2="18.805201" gradientTransform="matrix(1.5,0,0,1.5,0,0)">
<stop offset="0" style="stop-color:rgb(100%,100%,100%);stop-opacity:0.65098;"/>
<stop offset="1" style="stop-color:rgb(100%,100%,100%);stop-opacity:0;"/>
</linearGradient>
<linearGradient id="linear9" gradientUnits="userSpaceOnUse" x1="11.4286" y1="22.437401" x2="10.5354" y2="25.4214" gradientTransform="matrix(1.5,0,0,1.5,0,0)">
<stop offset="0" style="stop-color:rgb(100%,65.098039%,24.705882%);stop-opacity:1;"/>
<stop offset="1" style="stop-color:rgb(100%,100%,0%);stop-opacity:1;"/>
</linearGradient>
<linearGradient id="linear10" gradientUnits="userSpaceOnUse" x1="19.882" y1="21.530001" x2="22.2656" y2="24.7801" gradientTransform="matrix(1.5,0,0,1.5,0,0)">
<stop offset="0" style="stop-color:rgb(100%,65.098039%,24.705882%);stop-opacity:1;"/>
<stop offset="1" style="stop-color:rgb(100%,100%,0%);stop-opacity:1;"/>
</linearGradient>
<linearGradient id="linear11" gradientUnits="userSpaceOnUse" x1="20.5198" y1="18.9333" x2="19.6863" y2="22.8605" gradientTransform="matrix(1.5,0,0,1.5,0,0)">
<stop offset="0" style="stop-color:rgb(100%,100%,100%);stop-opacity:0.65098;"/>
<stop offset="1" style="stop-color:rgb(100%,100%,100%);stop-opacity:0;"/>
</linearGradient>
<linearGradient id="linear12" gradientUnits="userSpaceOnUse" x1="11.2464" y1="19.9042" x2="11.4117" y2="24.3239" gradientTransform="matrix(1.5,0,0,1.5,0,0)">
<stop offset="0" style="stop-color:rgb(100%,100%,100%);stop-opacity:0.65098;"/>
<stop offset="1" style="stop-color:rgb(100%,100%,100%);stop-opacity:0;"/>
</linearGradient>
<linearGradient id="linear13" gradientUnits="userSpaceOnUse" x1="20.3755" y1="18.861601" x2="20.5688" y2="20.182199" gradientTransform="matrix(1.5,0,0,1.5,0,0)">
<stop offset="0" style="stop-color:rgb(100%,100%,100%);stop-opacity:0.65098;"/>
<stop offset="1" style="stop-color:rgb(100%,100%,100%);stop-opacity:0;"/>
</linearGradient>
<linearGradient id="linear14" gradientUnits="userSpaceOnUse" x1="15.7644" y1="10.784" x2="15.7805" y2="13.1098" gradientTransform="matrix(1.5,0,0,1.5,0,0)">
<stop offset="0" style="stop-color:rgb(100%,65.098039%,24.705882%);stop-opacity:1;"/>
<stop offset="1" style="stop-color:rgb(100%,100%,0%);stop-opacity:1;"/>
</linearGradient>
<linearGradient id="linear15" gradientUnits="userSpaceOnUse" x1="15.5106" y1="10.5638" x2="15.5062" y2="11.7936" gradientTransform="matrix(1.5,0,0,1.5,0,0)">
<stop offset="0" style="stop-color:rgb(100%,100%,100%);stop-opacity:0.65098;"/>
<stop offset="1" style="stop-color:rgb(100%,100%,100%);stop-opacity:0;"/>
</linearGradient>
</defs>
<g id="surface1">
<path style=" stroke:none;fill-rule:nonzero;fill:rgb(100%,100%,100%);fill-opacity:1;" d="M 45 24 C 45 35.59375 35.601562 45 24 45 C 12.398438 45 3 35.59375 3 24 C 3 12.398438 12.398438 3 24 3 C 35.601562 3 45 12.398438 45 24 Z M 45 24 "/>
<path style=" stroke:none;fill-rule:nonzero;fill:rgb(0%,0%,0%);fill-opacity:1;" d="M 16.960938 32.863281 C 16.773438 32.585938 16.605469 32.207031 16.472656 31.753906 C 14.0625 29.035156 15.925781 25.039062 17.765625 22.320312 C 17.945312 22.03125 18.136719 21.75 18.34375 21.480469 C 19.75 19.738281 20.113281 18.523438 20.222656 16.878906 C 20.234375 16.570312 20.210938 16.167969 20.179688 15.703125 C 20.03125 13.324219 19.785156 9.378906 24.023438 9.027344 C 29.324219 8.589844 28.890625 13.457031 28.851562 16.308594 C 28.851562 16.429688 28.847656 16.542969 28.847656 16.652344 C 28.832031 18.375 29.730469 19.550781 30.667969 20.78125 C 31.011719 21.230469 31.359375 21.683594 31.667969 22.175781 C 31.675781 22.191406 31.6875 22.207031 31.695312 22.21875 C 33.332031 24.582031 34.949219 28.105469 32.699219 31.449219 C 32.382812 32.589844 31.902344 33.636719 31.265625 34.488281 C 28.96875 37.507812 26.929688 37.203125 25.339844 36.960938 C 24.859375 36.890625 24.417969 36.824219 24.023438 36.855469 C 23.371094 36.898438 22.84375 37.003906 22.390625 37.09375 C 20.640625 37.445312 19.957031 37.585938 16.960938 32.863281 Z M 16.960938 32.863281 "/>
<path style=" stroke:none;fill-rule:nonzero;fill:url(#linear0);" d="M 27.019531 11.691406 C 26.972656 13.089844 25.488281 14.304688 23.710938 14.417969 C 21.929688 14.53125 20.535156 13.46875 20.585938 12.070312 C 20.632812 10.671875 22.117188 9.457031 23.894531 9.34375 C 25.675781 9.242188 27.070312 10.292969 27.019531 11.691406 Z M 27.019531 11.691406 "/>
<path style=" stroke:none;fill-rule:evenodd;fill:url(#linear1);" d="M 23.796875 15.089844 C 23.8125 15.851562 24.160156 16.5 24.648438 16.792969 C 23.054688 16.648438 21.078125 17.234375 21.078125 18.335938 C 21.050781 20.207031 20.011719 22.527344 19.265625 24.203125 C 19.117188 24.53125 18.980469 24.835938 18.867188 25.105469 C 18.402344 26.253906 18.125 27.480469 18.09375 28.683594 C 16.867188 26.992188 17.757812 24.824219 18.238281 23.882812 C 18.875 22.640625 18.863281 22.488281 18.617188 22.777344 C 17.664062 24.398438 15.871094 27.648438 18.117188 29.605469 C 18.1875 30.476562 18.398438 31.320312 18.777344 32.097656 C 21.785156 38.164062 27.414062 35.671875 29.269531 32.527344 C 29.519531 32.082031 29.71875 31.648438 29.875 31.230469 C 29.96875 31.289062 30.070312 31.335938 30.175781 31.363281 C 31.109375 31.640625 32.503906 30.589844 32.835938 29.933594 C 33.242188 29.066406 32.828125 28.476562 31.453125 27.769531 C 31.382812 27.734375 31.3125 27.703125 31.246094 27.671875 C 31.773438 25.453125 30.316406 23.140625 29.28125 22.160156 C 29.085938 22.113281 29.058594 22.222656 29.359375 22.523438 C 30.011719 23.148438 31.4375 25.382812 30.667969 27.464844 C 30.539062 27.429688 30.417969 27.40625 30.300781 27.390625 C 30.066406 25.972656 29.433594 24.871094 28.992188 24.097656 C 28.894531 23.925781 28.804688 23.765625 28.730469 23.625 C 28.582031 23.34375 28.40625 23.050781 28.21875 22.738281 C 27.492188 21.539062 26.609375 20.078125 26.609375 17.910156 C 26.496094 17.433594 26.046875 17.113281 25.449219 16.9375 C 26.144531 16.796875 26.664062 15.984375 26.648438 15.007812 C 26.628906 13.957031 25.96875 13.121094 25.183594 13.140625 C 24.398438 13.160156 23.769531 14.039062 23.796875 15.089844 Z M 24.445312 15.324219 C 24.4375 15.90625 24.710938 16.378906 25.074219 16.378906 C 25.429688 16.378906 25.734375 15.90625 25.742188 15.335938 C 25.753906 14.753906 25.480469 14.285156 25.113281 14.285156 C 24.75 14.285156 24.457031 14.753906 24.445312 15.324219 Z M 24.445312 15.324219 "/>
<path style=" stroke:none;fill-rule:evenodd;fill:url(#linear2);" d="M 21.832031 16.726562 C 22.402344 16.695312 22.816406 15.929688 22.765625 15.019531 C 22.71875 14.109375 22.214844 13.40625 21.648438 13.4375 C 21.078125 13.46875 20.664062 14.234375 20.714844 15.140625 C 20.761719 16.050781 21.261719 16.753906 21.832031 16.726562 Z M 22.175781 15.335938 C 22.226562 15.816406 22.050781 16.222656 21.792969 16.265625 C 21.539062 16.296875 21.292969 15.9375 21.242188 15.457031 C 21.195312 14.980469 21.371094 14.570312 21.628906 14.53125 C 21.882812 14.5 22.128906 14.855469 22.175781 15.335938 Z M 22.175781 15.335938 "/>
<path style=" stroke:none;fill-rule:nonzero;fill:url(#linear3);" d="M 24.59375 15 C 24.566406 15.324219 24.710938 15.589844 24.917969 15.613281 C 25.125 15.632812 25.320312 15.378906 25.351562 15.0625 C 25.378906 14.734375 25.234375 14.46875 25.027344 14.449219 C 24.820312 14.429688 24.625 14.683594 24.59375 15 Z M 24.59375 15 "/>
<path style=" stroke:none;fill-rule:nonzero;fill:url(#linear4);" d="M 21.960938 15.082031 C 21.992188 15.347656 21.882812 15.582031 21.726562 15.601562 C 21.570312 15.621094 21.421875 15.417969 21.390625 15.144531 C 21.363281 14.878906 21.46875 14.640625 21.628906 14.621094 C 21.785156 14.601562 21.933594 14.816406 21.960938 15.082031 Z M 21.960938 15.082031 "/>
<path style=" stroke:none;fill-rule:nonzero;fill:url(#linear5);" d="M 28.003906 25.730469 C 28.003906 27.527344 26.34375 29.851562 23.492188 29.832031 C 20.554688 29.851562 19.308594 27.527344 19.308594 25.730469 C 19.308594 23.933594 21.253906 22.472656 23.652344 22.472656 C 26.058594 22.484375 28.003906 23.933594 28.003906 25.730469 Z M 28.003906 25.730469 "/>
<path style=" stroke:none;fill-rule:nonzero;fill:url(#linear6);" d="M 26.453125 20.082031 C 26.421875 21.941406 25.253906 22.378906 23.78125 22.378906 C 22.304688 22.378906 21.234375 22.105469 21.105469 20.082031 C 21.105469 18.816406 22.304688 18.082031 23.78125 18.082031 C 25.253906 18.074219 26.453125 18.808594 26.453125 20.082031 Z M 26.453125 20.082031 "/>
<path style=" stroke:none;fill-rule:nonzero;fill:url(#linear7);" d="M 17.539062 22.941406 C 18.503906 21.421875 20.535156 19.082031 17.921875 23.269531 C 15.800781 26.71875 17.136719 28.933594 17.824219 29.546875 C 19.808594 31.386719 19.730469 32.621094 18.167969 31.648438 C 14.820312 29.578125 15.515625 26.085938 17.539062 22.941406 Z M 17.539062 22.941406 "/>
<path style=" stroke:none;fill-rule:nonzero;fill:url(#linear8);" d="M 31.480469 23.566406 C 30.648438 21.777344 27.996094 17.246094 31.609375 22.511719 C 34.902344 27.28125 32.59375 30.597656 32.179688 30.925781 C 31.765625 31.253906 30.382812 31.914062 30.785156 30.761719 C 31.199219 29.609375 33.242188 27.425781 31.480469 23.566406 Z M 31.480469 23.566406 "/>
<path style=" stroke:none;fill-rule:nonzero;fill:url(#linear9);" d="M 16.8125 37.652344 C 14.613281 36.4375 11.417969 37.886719 12.578125 34.601562 C 12.8125 33.855469 12.234375 32.734375 12.609375 32.007812 C 13.050781 31.121094 14.003906 31.3125 14.574219 30.722656 C 15.132812 30.109375 15.488281 29.046875 16.539062 29.210938 C 17.578125 29.375 18.277344 30.699219 19.003906 32.335938 C 19.542969 33.5 21.449219 35.140625 21.324219 36.449219 C 21.164062 38.449219 18.976562 38.828125 16.8125 37.652344 Z M 16.8125 37.652344 "/>
<path style=" stroke:none;fill-rule:evenodd;fill:rgb(90.196079%,54.901963%,24.705882%);fill-opacity:1;" d="M 14.816406 30.960938 C 14.28125 31.546875 13.296875 31.40625 12.902344 32.171875 C 12.648438 32.664062 12.925781 33.417969 12.964844 33.957031 C 13.007812 34.625 12.457031 35.566406 12.738281 36.136719 C 13.054688 36.773438 14.480469 36.691406 15.105469 36.78125 C 16.652344 37.007812 19.210938 39.007812 20.609375 37.410156 C 21.976562 35.851562 19.347656 33.875 18.703125 32.484375 C 18.285156 31.542969 17.65625 29.738281 16.488281 29.554688 C 15.664062 29.425781 15.289062 30.441406 14.816406 30.960938 Z M 16.585938 28.867188 C 18.042969 29.09375 18.769531 30.980469 19.304688 32.1875 C 20.121094 33.933594 22.910156 35.8125 21.101562 37.878906 C 19.460938 39.757812 16.867188 37.742188 15.011719 37.46875 C 14.085938 37.335938 12.628906 37.433594 12.144531 36.453125 C 11.726562 35.609375 12.355469 34.847656 12.296875 34.007812 C 12.246094 33.292969 11.964844 32.523438 12.3125 31.847656 C 12.789062 30.890625 13.707031 31.121094 14.332031 30.480469 C 14.996094 29.75 15.394531 28.683594 16.585938 28.867188 Z M 16.585938 28.867188 "/>
<path style=" stroke:none;fill-rule:nonzero;fill:url(#linear10);" d="M 32.070312 37.089844 C 33.683594 35.058594 37.269531 35.480469 34.851562 32.691406 C 34.339844 32.089844 34.5 30.804688 33.871094 30.25 C 33.132812 29.578125 32.316406 30.128906 31.570312 29.78125 C 30.824219 29.40625 30.039062 28.679688 29.125 29.191406 C 28.210938 29.710938 28.113281 31.058594 28.023438 32.835938 C 27.945312 34.109375 26.824219 36.246094 27.425781 37.417969 C 28.289062 39.234375 30.539062 38.992188 32.070312 37.089844 Z M 32.070312 37.089844 "/>
<path style=" stroke:none;fill-rule:evenodd;fill:rgb(90.196079%,54.901963%,24.705882%);fill-opacity:1;" d="M 32.714844 29.546875 C 33.128906 29.535156 33.621094 29.566406 34.085938 29.988281 C 34.664062 30.5 34.671875 31.328125 34.890625 32.027344 C 35.148438 32.851562 36.050781 33.324219 35.996094 34.289062 C 35.910156 35.871094 33.171875 36.25 32.328125 37.3125 C 31.519531 38.316406 30.496094 38.914062 29.523438 38.996094 C 28.050781 39.117188 26.832031 37.878906 26.917969 36.367188 C 26.988281 35.140625 27.613281 34.027344 27.6875 32.816406 C 27.734375 31.933594 27.78125 31.121094 27.9375 30.457031 C 28.101562 29.789062 28.390625 29.210938 28.960938 28.886719 C 30.21875 28.183594 31.429688 29.582031 32.714844 29.546875 Z M 29.28125 29.496094 C 28.941406 29.691406 28.726562 30.046875 28.589844 30.625 C 28.449219 31.210938 28.402344 31.960938 28.355469 32.855469 C 28.28125 34.074219 27.65625 35.1875 27.585938 36.40625 C 27.523438 37.496094 28.359375 38.394531 29.46875 38.300781 C 30.222656 38.238281 31.089844 37.765625 31.8125 36.871094 C 32.460938 36.054688 35.269531 35.300781 35.328125 34.25 C 35.367188 33.5625 34.464844 32.917969 34.253906 32.242188 C 34.085938 31.710938 34.078125 30.890625 33.652344 30.515625 C 33.382812 30.269531 33.097656 30.230469 32.730469 30.242188 C 31.675781 30.269531 30.265625 28.949219 29.28125 29.496094 Z M 29.28125 29.496094 "/>
<path style=" stroke:none;fill-rule:nonzero;fill:url(#linear11);" d="M 31.375 34.375 C 33.867188 30.546875 32.011719 30.578125 31.382812 30.28125 C 30.753906 29.976562 30.097656 29.375 29.359375 29.792969 C 28.621094 30.222656 28.582031 31.324219 28.5625 32.773438 C 28.535156 33.816406 27.699219 35.558594 28.199219 36.53125 C 28.808594 37.664062 30.28125 36.019531 31.375 34.375 Z M 31.375 34.375 "/>
<path style=" stroke:none;fill-rule:nonzero;fill:url(#linear12);" d="M 16.300781 34.925781 C 12.570312 32.414062 14.316406 31.558594 14.878906 31.160156 C 15.554688 30.648438 15.566406 29.667969 16.402344 29.761719 C 17.234375 29.851562 17.726562 30.925781 18.285156 32.253906 C 18.699219 33.203125 20.132812 34.46875 20.027344 35.558594 C 19.886719 36.847656 17.914062 36 16.300781 34.925781 Z M 16.300781 34.925781 "/>
<path style=" stroke:none;fill-rule:nonzero;fill:rgb(0%,0%,0%);fill-opacity:1;" d="M 32.621094 29.90625 C 32.328125 30.433594 31.128906 31.273438 30.332031 31.046875 C 29.515625 30.832031 29.144531 29.640625 29.3125 28.742188 C 29.457031 27.71875 30.332031 27.667969 31.433594 28.179688 C 32.601562 28.730469 32.964844 29.199219 32.621094 29.90625 Z M 32.621094 29.90625 "/>
<path style=" stroke:none;fill-rule:nonzero;fill:url(#linear13);" d="M 31.816406 29.609375 C 31.628906 29.976562 30.84375 30.558594 30.292969 30.40625 C 29.742188 30.25 29.46875 29.425781 29.554688 28.800781 C 29.636719 28.097656 30.222656 28.054688 30.972656 28.402344 C 31.777344 28.792969 32.03125 29.117188 31.816406 29.609375 Z M 31.816406 29.609375 "/>
<path style=" stroke:none;fill-rule:nonzero;fill:url(#linear14);" d="M 21.65625 16.285156 C 22.050781 15.910156 23.003906 14.753906 24.808594 15.960938 C 25.144531 16.183594 25.417969 16.203125 26.058594 16.492188 C 27.34375 17.042969 26.734375 18.367188 25.359375 18.816406 C 24.769531 19.011719 24.238281 19.757812 23.179688 19.6875 C 22.265625 19.636719 22.03125 19.011719 21.46875 18.675781 C 20.476562 18.09375 20.328125 17.308594 20.871094 16.886719 C 21.410156 16.46875 21.617188 16.316406 21.65625 16.285156 Z M 21.65625 16.285156 "/>
<path style=" stroke:none;fill-rule:evenodd;fill:rgb(90.196079%,54.901963%,24.705882%);fill-opacity:1;" d="M 20.988281 17.054688 C 20.785156 17.214844 20.71875 17.425781 20.785156 17.660156 C 20.925781 18.140625 21.933594 18.800781 22.316406 19.125 C 22.535156 19.308594 22.785156 19.453125 23.191406 19.476562 C 24.058594 19.535156 24.539062 18.867188 25.300781 18.617188 C 25.800781 18.457031 26.855469 17.832031 26.507812 17.117188 C 26.207031 16.507812 25.203125 16.46875 24.703125 16.132812 C 23.839844 15.5625 23.214844 15.566406 22.769531 15.726562 C 22.277344 15.902344 21.433594 16.710938 20.988281 17.054688 Z M 22.636719 15.332031 C 23.21875 15.125 23.972656 15.152344 24.917969 15.785156 C 25.542969 16.203125 26.488281 16.164062 26.863281 16.929688 C 27.34375 17.90625 26.183594 18.765625 25.421875 19.015625 C 24.605469 19.285156 24.148438 19.960938 23.167969 19.894531 C 22.660156 19.863281 22.332031 19.671875 22.066406 19.449219 C 21.511719 18.984375 20.574219 18.542969 20.359375 17.804688 C 20.242188 17.394531 20.414062 16.980469 20.75 16.722656 C 21.292969 16.300781 22.023438 15.554688 22.636719 15.332031 Z M 22.636719 15.332031 "/>
<path style=" stroke:none;fill-rule:evenodd;fill:rgb(90.196079%,54.901963%,24.705882%);fill-opacity:1;" d="M 26.210938 17.351562 C 26.214844 17.425781 26.160156 17.492188 26.085938 17.496094 C 25.046875 17.554688 24.316406 18.742188 23.140625 18.742188 C 22.484375 18.742188 21.964844 18.425781 21.589844 18.121094 C 21.515625 18.058594 20.855469 17.550781 20.855469 17.417969 C 20.855469 17.34375 20.914062 17.28125 20.988281 17.28125 C 21.125 17.28125 21.542969 17.734375 21.699219 17.859375 C 22.050781 18.148438 22.570312 18.464844 23.140625 18.464844 C 24.304688 18.464844 25.015625 17.277344 26.070312 17.21875 C 26.144531 17.214844 26.207031 17.273438 26.210938 17.351562 Z M 26.210938 17.351562 "/>
<path style=" stroke:none;fill-rule:nonzero;fill:url(#linear15);" d="M 22.265625 16.183594 C 22.460938 16 23.082031 15.5 23.898438 16.011719 C 24.074219 16.113281 24.25 16.226562 24.507812 16.378906 C 25.027344 16.695312 24.773438 17.152344 24.144531 17.441406 C 23.859375 17.5625 23.386719 17.828125 23.03125 17.808594 C 22.640625 17.765625 22.375 17.5 22.117188 17.328125 C 21.636719 17 21.667969 16.726562 21.894531 16.511719 C 22.058594 16.347656 22.246094 16.195312 22.265625 16.183594 Z M 22.265625 16.183594 "/>
</g>
</svg>
