<?xml version="1.0" encoding="UTF-8"?>
<svg xmlns="http://www.w3.org/2000/svg" xmlns:xlink="http://www.w3.org/1999/xlink" width="48px" height="48px" viewBox="0 0 48 48" version="1.1">
<g id="surface1">
<path style=" stroke:none;fill-rule:nonzero;fill:rgb(93.725491%,80.000001%,63.921571%);fill-opacity:1;" d="M 38.269531 19.269531 C 38.191406 17.863281 38.585938 16.53125 37.957031 15.4375 C 36.394531 12.699219 32.484375 11.136719 24.664062 11.136719 L 24.664062 11.058594 L 24.664062 11.136719 C 16.058594 11.136719 12.386719 12.699219 10.824219 15.4375 C 10.292969 16.640625 10.050781 17.953125 10.117188 19.265625 C 9.832031 20.46875 9.699219 21.707031 9.726562 22.941406 C 9.960938 24.664062 10.117188 26.382812 10.351562 27.945312 C 10.585938 29.277344 12.464844 30.292969 12.699219 31.546875 C 13.167969 34.910156 16.140625 36.472656 24.742188 36.472656 L 24.742188 36.863281 L 24.589844 36.863281 L 24.589844 36.472656 C 32.410156 36.472656 35.691406 34.90625 36.164062 31.546875 C 36.316406 30.296875 37.886719 29.277344 38.113281 27.945312 C 38.347656 26.382812 38.429688 24.660156 38.664062 22.941406 C 38.660156 21.707031 38.53125 20.476562 38.269531 19.269531 Z M 38.269531 19.269531 "/>
<path style=" stroke:none;fill-rule:nonzero;fill:rgb(80.000001%,67.450982%,55.29412%);fill-opacity:1;" d="M 24.273438 20.519531 C 25.550781 20.636719 26.734375 21.253906 27.558594 22.242188 C 28.652344 23.179688 30.453125 23.804688 31.234375 24.664062 C 32.183594 25.453125 32.914062 26.476562 33.34375 27.636719 C 33.644531 28.734375 33.800781 29.863281 33.816406 31 C 33.816406 31.390625 34.046875 31.3125 34.675781 31 C 35.914062 30.242188 37.023438 29.292969 37.960938 28.183594 C 37.726562 29.511719 36.082031 30.683594 35.925781 31.933594 C 35.457031 35.296875 32.175781 36.9375 24.117188 36.9375 L 24.589844 36.9375 "/>
<path style=" stroke:none;fill-rule:nonzero;fill:rgb(80.000001%,67.450982%,55.29412%);fill-opacity:1;" d="M 29.277344 17.863281 C 29.59375 18.878906 30.609375 22.398438 28.574219 21.226562 C 29.316406 21.808594 29.816406 22.644531 29.980469 23.570312 C 30.183594 24.585938 30.9375 25.402344 31.933594 25.683594 C 33.28125 25.882812 34.65625 25.546875 35.761719 24.742188 C 37.089844 23.472656 37.496094 21.511719 36.78125 19.816406 C 36.292969 18.441406 35.03125 17.488281 33.574219 17.394531 C 32.101562 17 28.964844 16.6875 29.277344 17.863281 Z M 29.277344 17.863281 "/>
<path style=" stroke:none;fill-rule:nonzero;fill:rgb(0%,0%,0%);fill-opacity:1;" d="M 36.160156 21.613281 C 36.160156 20.015625 34.863281 18.722656 33.265625 18.722656 C 31.667969 18.722656 30.375 20.015625 30.375 21.613281 C 30.375 23.214844 31.667969 24.507812 33.265625 24.507812 C 34.863281 24.507812 36.160156 23.214844 36.160156 21.613281 Z M 36.160156 21.613281 "/>
<path style=" stroke:none;fill-rule:nonzero;fill:rgb(100%,100%,100%);fill-opacity:1;" d="M 33.265625 20.285156 C 33.265625 19.855469 32.914062 19.503906 32.484375 19.503906 C 32.050781 19.503906 31.703125 19.855469 31.703125 20.285156 C 31.703125 20.71875 32.050781 21.066406 32.484375 21.066406 C 32.914062 21.066406 33.265625 20.71875 33.265625 20.285156 Z M 33.265625 20.285156 "/>
<path style=" stroke:none;fill-rule:nonzero;fill:rgb(93.725491%,80.000001%,63.921571%);fill-opacity:1;" d="M 28.808594 21.460938 C 30.28125 22.492188 31.644531 23.671875 32.875 24.976562 C 34.28125 26.777344 34.28125 27.089844 34.28125 27.089844 L 33.265625 27.558594 C 32.503906 26.074219 31.40625 24.792969 30.058594 23.808594 C 28.261719 22.792969 28.027344 21.933594 28.027344 21.933594 Z M 28.808594 21.460938 "/>
<path style=" stroke:none;fill-rule:nonzero;fill:rgb(80.000001%,67.450982%,55.29412%);fill-opacity:1;" d="M 24.351562 20.519531 C 23.003906 20.632812 21.75 21.246094 20.832031 22.242188 C 19.738281 23.179688 17.785156 23.804688 17.082031 24.664062 C 16.109375 25.449219 15.351562 26.472656 14.894531 27.636719 C 14.59375 28.734375 14.4375 29.863281 14.425781 31 C 14.425781 31.390625 14.503906 31.46875 13.484375 31 C 12.226562 30.269531 11.113281 29.3125 10.199219 28.183594 C 10.433594 29.511719 12.078125 30.683594 12.234375 31.933594 C 12.703125 35.21875 15.984375 36.859375 24.039062 36.859375 L 24.589844 36.859375 "/>
<path style=" stroke:none;fill-rule:nonzero;fill:rgb(33.725491%,20%,16.862746%);fill-opacity:1;" d="M 31.859375 25.914062 C 30.039062 23.503906 27.214844 22.0625 24.195312 22.003906 C 21.179688 22.082031 18.363281 23.519531 16.53125 25.914062 C 15.3125 27.183594 14.738281 28.941406 14.96875 30.683594 C 14.96875 37.644531 17.390625 35.535156 19.035156 36.394531 C 20.667969 36.941406 22.410156 37.101562 24.117188 36.863281 C 25.824219 37.105469 27.566406 36.945312 29.199219 36.394531 C 30.84375 35.535156 33.265625 37.644531 33.265625 30.683594 C 33.660156 28.957031 33.128906 27.152344 31.859375 25.914062 Z M 31.859375 25.914062 "/>
<path style=" stroke:none;fill-rule:nonzero;fill:rgb(26.666668%,15.686275%,13.725491%);fill-opacity:1;" d="M 24.039062 23.960938 C 23.980469 25.265625 23.742188 26.554688 23.335938 27.792969 L 24.195312 27.558594 Z M 24.039062 23.960938 "/>
<path style=" stroke:none;fill-rule:nonzero;fill:rgb(26.666668%,15.686275%,13.725491%);fill-opacity:1;" d="M 24.273438 23.960938 C 24.332031 25.265625 24.570312 26.554688 24.976562 27.792969 L 24.117188 27.558594 Z M 24.273438 23.960938 "/>
<path style=" stroke:none;fill-rule:nonzero;fill:rgb(33.725491%,20%,16.862746%);fill-opacity:1;" d="M 21.535156 23.179688 C 21.222656 22.398438 22.398438 21.148438 24.273438 21.148438 C 26.152344 21.148438 27.324219 22.398438 27.011719 23.179688 C 26.699219 23.960938 25.449219 24.195312 24.273438 24.195312 C 23.023438 24.195312 21.847656 23.960938 21.535156 23.179688 Z M 21.535156 23.179688 "/>
<path style=" stroke:none;fill-rule:nonzero;fill:rgb(0%,0%,0%);fill-opacity:1;" d="M 24.273438 23.960938 C 24.273438 23.8125 25.367188 23.8125 25.992188 23.414062 C 25.992188 23.414062 24.742188 23.804688 24.507812 23.648438 C 24.34375 23.503906 24.234375 23.3125 24.195312 23.101562 C 24.152344 23.3125 24.042969 23.503906 23.878906 23.648438 C 23.644531 23.796875 22.238281 23.414062 22.238281 23.414062 C 22.851562 23.550781 23.453125 23.730469 24.039062 23.960938 L 24.039062 24.585938 C 23.988281 25.605469 24.039062 26.625 24.1875 27.636719 C 24.421875 27.949219 24.335938 25.445312 24.335938 24.585938 C 24.28125 24.382812 24.261719 24.171875 24.273438 23.960938 Z M 24.273438 23.960938 "/>
<path style=" stroke:none;fill-rule:nonzero;fill:rgb(49.803922%,29.019609%,25.490198%);fill-opacity:1;" d="M 24.273438 28.417969 C 25.15625 28.535156 25.992188 28.886719 26.695312 29.433594 C 26.085938 28.640625 25.234375 28.066406 24.273438 27.792969 C 23.167969 28.03125 22.191406 28.671875 21.535156 29.59375 C 22.304688 28.929688 23.261719 28.519531 24.273438 28.417969 Z M 24.273438 28.417969 "/>
<path style=" stroke:none;fill-rule:nonzero;fill:rgb(26.666668%,15.686275%,13.725491%);fill-opacity:1;" d="M 24.117188 34.199219 C 22.890625 34.132812 21.679688 33.894531 20.515625 33.496094 C 20.28125 33.417969 20.046875 33.574219 19.8125 33.496094 C 17.921875 32.960938 16.253906 31.839844 15.042969 30.289062 L 15.042969 30.605469 C 15.042969 37.566406 17.46875 35.453125 19.109375 36.3125 C 20.746094 36.859375 22.484375 37.019531 24.195312 36.78125 C 25.902344 37.023438 27.640625 36.863281 29.277344 36.3125 C 30.917969 35.453125 33.34375 37.566406 33.34375 30.605469 L 33.34375 29.902344 C 32.1875 31.601562 30.472656 32.847656 28.5 33.421875 C 28.265625 33.5 27.875 33.34375 27.640625 33.34375 C 26.523438 33.832031 25.332031 34.121094 24.117188 34.199219 Z M 24.117188 34.199219 "/>
<path style=" stroke:none;fill-rule:nonzero;fill:rgb(26.666668%,15.686275%,13.725491%);fill-opacity:1;" d="M 20.910156 30.449219 C 20.910156 30.449219 20.050781 32.953125 20.675781 34.050781 L 19.894531 33.738281 C 20.152344 32.617188 20.492188 31.519531 20.910156 30.449219 Z M 20.910156 30.449219 "/>
<path style=" stroke:none;fill-rule:nonzero;fill:rgb(26.666668%,15.686275%,13.725491%);fill-opacity:1;" d="M 27.480469 30.449219 C 27.480469 30.449219 28.339844 32.953125 27.714844 34.050781 L 28.5 33.738281 C 28.28125 32.605469 27.9375 31.503906 27.480469 30.449219 Z M 27.480469 30.449219 "/>
<path style=" stroke:none;fill-rule:nonzero;fill:rgb(80.000001%,67.450982%,55.29412%);fill-opacity:1;" d="M 18.878906 17.863281 C 18.5625 18.878906 17.546875 22.398438 19.582031 21.226562 C 18.839844 21.808594 18.339844 22.644531 18.175781 23.570312 C 17.972656 24.585938 17.21875 25.402344 16.222656 25.683594 C 14.871094 25.886719 13.496094 25.550781 12.386719 24.75 C 11.058594 23.476562 10.65625 21.519531 11.371094 19.824219 C 11.855469 18.445312 13.117188 17.492188 14.574219 17.398438 C 16.0625 17 19.191406 16.6875 18.878906 17.863281 Z M 18.878906 17.863281 "/>
<path style=" stroke:none;fill-rule:nonzero;fill:rgb(0%,0%,0%);fill-opacity:1;" d="M 24.195312 27.792969 C 26.175781 28.351562 27.628906 30.046875 27.871094 32.09375 L 27.871094 31.941406 C 27.820312 29.804688 26.292969 27.984375 24.195312 27.5625 C 22.082031 27.957031 20.542969 29.792969 20.519531 31.941406 L 20.519531 32.09375 C 20.789062 30.058594 22.226562 28.375 24.195312 27.792969 Z M 24.195312 27.792969 "/>
<path style=" stroke:none;fill-rule:nonzero;fill:rgb(20%,9.019608%,7.058824%);fill-opacity:1;" d="M 25.046875 22.648438 C 24.980469 22.398438 24.828125 22.21875 24.703125 22.253906 C 24.578125 22.285156 24.527344 22.515625 24.59375 22.765625 C 24.65625 23.015625 24.8125 23.195312 24.9375 23.160156 C 25.0625 23.128906 25.109375 22.898438 25.046875 22.648438 Z M 25.046875 22.648438 "/>
<path style=" stroke:none;fill-rule:nonzero;fill:rgb(20%,9.019608%,7.058824%);fill-opacity:1;" d="M 23.550781 22.269531 C 23.429688 22.234375 23.265625 22.402344 23.191406 22.652344 C 23.113281 22.898438 23.152344 23.128906 23.273438 23.167969 C 23.398438 23.207031 23.558594 23.035156 23.636719 22.789062 C 23.714844 22.542969 23.675781 22.308594 23.550781 22.269531 Z M 23.550781 22.269531 "/>
<path style=" stroke:none;fill-rule:nonzero;fill:rgb(0%,0%,0%);fill-opacity:1;" d="M 17.941406 21.613281 C 17.941406 20.015625 16.644531 18.722656 15.046875 18.722656 C 13.449219 18.722656 12.152344 20.015625 12.152344 21.613281 C 12.152344 23.214844 13.449219 24.507812 15.046875 24.507812 C 16.644531 24.507812 17.941406 23.214844 17.941406 21.613281 Z M 17.941406 21.613281 "/>
<path style=" stroke:none;fill-rule:nonzero;fill:rgb(100%,100%,100%);fill-opacity:1;" d="M 16.609375 20.285156 C 16.609375 19.855469 16.257812 19.503906 15.828125 19.503906 C 15.394531 19.503906 15.046875 19.855469 15.046875 20.285156 C 15.046875 20.71875 15.394531 21.066406 15.828125 21.066406 C 16.257812 21.066406 16.609375 20.71875 16.609375 20.285156 Z M 16.609375 20.285156 "/>
<path style=" stroke:none;fill-rule:nonzero;fill:rgb(49.803922%,29.019609%,25.490198%);fill-opacity:1;" d="M 25.050781 21.613281 C 25.050781 21.613281 24.269531 21.929688 24.109375 22.007812 C 23.78125 21.917969 23.464844 21.789062 23.171875 21.613281 Z M 25.050781 21.613281 "/>
<path style=" stroke:none;fill-rule:nonzero;fill:rgb(93.725491%,80.000001%,63.921571%);fill-opacity:1;" d="M 19.351562 21.460938 C 17.878906 22.492188 16.515625 23.671875 15.285156 24.976562 C 13.875 26.777344 13.875 27.089844 13.875 27.089844 L 14.894531 27.558594 C 15.652344 26.074219 16.75 24.792969 18.097656 23.808594 C 19.898438 22.792969 20.132812 21.933594 20.132812 21.933594 Z M 19.351562 21.460938 "/>
<path style=" stroke:none;fill-rule:nonzero;fill:rgb(80.000001%,67.450982%,55.29412%);fill-opacity:1;" d="M 13.636719 16.21875 C 13.09375 17.664062 12.074219 18.875 10.746094 19.660156 C 12.464844 19.457031 13.730469 17.949219 13.636719 16.21875 Z M 13.636719 16.21875 "/>
<path style=" stroke:none;fill-rule:nonzero;fill:rgb(80.000001%,67.450982%,55.29412%);fill-opacity:1;" d="M 34.363281 16.21875 C 34.90625 17.664062 35.925781 18.875 37.253906 19.660156 C 35.535156 19.457031 34.269531 17.949219 34.363281 16.21875 Z M 34.363281 16.21875 "/>
<path style=" stroke:none;fill-rule:nonzero;fill:rgb(80.000001%,67.450982%,55.29412%);fill-opacity:1;" d="M 28.964844 20.753906 C 27.707031 19.550781 26.082031 18.808594 24.351562 18.640625 L 24.585938 18.640625 C 22.832031 18.621094 21.160156 19.398438 20.050781 20.753906 C 21.339844 19.734375 22.9375 19.179688 24.585938 19.191406 C 26.160156 19.300781 27.675781 19.84375 28.964844 20.753906 Z M 28.964844 20.753906 "/>
<path style=" stroke:none;fill-rule:nonzero;fill:rgb(80.000001%,67.450982%,55.29412%);fill-opacity:1;" d="M 26.617188 16.453125 C 26.046875 15.699219 25.207031 15.195312 24.273438 15.046875 L 24.507812 15.046875 C 23.554688 15.078125 22.691406 15.613281 22.238281 16.453125 C 22.832031 15.832031 23.648438 15.464844 24.507812 15.4375 C 25.324219 15.457031 26.09375 15.828125 26.617188 16.453125 Z M 26.617188 16.453125 "/>
<path style=" stroke:none;fill-rule:nonzero;fill:rgb(80.000001%,67.450982%,55.29412%);fill-opacity:1;" d="M 15.046875 26.617188 C 14.226562 27.042969 13.28125 27.152344 12.386719 26.933594 L 12.074219 26.933594 C 11.457031 26.292969 11 25.515625 10.746094 24.664062 C 11.421875 26.367188 13.320312 27.230469 15.046875 26.617188 Z M 15.046875 26.617188 "/>
<path style=" stroke:none;fill-rule:nonzero;fill:rgb(80.000001%,67.450982%,55.29412%);fill-opacity:1;" d="M 33.1875 26.617188 C 34.007812 27.042969 34.953125 27.152344 35.847656 26.933594 L 35.535156 26.933594 C 36.472656 26.554688 37.113281 25.675781 37.175781 24.664062 C 36.933594 25.472656 36.367188 26.140625 35.609375 26.511719 C 34.851562 26.882812 33.976562 26.921875 33.1875 26.617188 Z M 33.1875 26.617188 "/>
<path style=" stroke:none;fill-rule:nonzero;fill:rgb(80.000001%,67.450982%,55.29412%);fill-opacity:1;" d="M 16.84375 16.0625 C 17.960938 15.84375 19.113281 15.894531 20.207031 16.214844 C 21.613281 16.683594 20.523438 18.558594 20.753906 18.636719 C 21.667969 17.808594 22.890625 17.40625 24.117188 17.542969 C 26.777344 17.691406 27.089844 18.871094 27.480469 18.636719 C 27.871094 18.488281 27.089844 15.351562 31.15625 16.058594 C 31.15625 16.058594 27.011719 14.960938 27.167969 17.933594 C 25.421875 16.792969 23.183594 16.734375 21.382812 17.785156 C 21.382812 17.785156 22.242188 14.890625 16.84375 16.0625 Z M 16.84375 16.0625 "/>
<path style=" stroke:none;fill-rule:nonzero;fill:rgb(80.000001%,67.450982%,55.29412%);fill-opacity:1;" d="M 15.75 12 C 15.75 12 12.148438 16.457031 11.683594 18.175781 C 11.136719 19.898438 10.746094 27.089844 10.277344 28.109375 L 8.632812 21.066406 L 11.683594 13.71875 Z M 15.75 12 "/>
<path style=" stroke:none;fill-rule:nonzero;fill:rgb(80.000001%,67.450982%,55.29412%);fill-opacity:1;" d="M 32.484375 12 C 32.484375 12 36.085938 16.457031 36.550781 18.175781 C 37.097656 19.898438 37.488281 27.089844 37.957031 28.109375 L 39.601562 21.066406 L 36.550781 13.71875 Z M 32.484375 12 "/>
<path style=" stroke:none;fill-rule:nonzero;fill:rgb(33.725491%,20%,16.862746%);fill-opacity:1;" d="M 32.25 12 C 34.433594 13.855469 36.125 16.21875 37.175781 18.882812 C 38.269531 22.558594 37.800781 27.09375 38.664062 27.640625 C 39.914062 28.421875 41.242188 23.730469 41.710938 23.261719 C 42.414062 22.480469 44.839844 20.445312 44.996094 20.054688 C 45.15625 19.667969 40.148438 14.191406 37.882812 13.097656 C 35.378906 11.839844 32.101562 11.683594 32.25 12 Z M 32.25 12 "/>
<path style=" stroke:none;fill-rule:nonzero;fill:rgb(26.666668%,15.686275%,13.725491%);fill-opacity:1;" d="M 35.535156 13.949219 C 38.304688 17.722656 39.859375 22.25 39.992188 26.929688 L 41.792969 23.257812 C 40.445312 19.71875 38.304688 16.535156 35.535156 13.949219 Z M 35.535156 13.949219 "/>
<path style=" stroke:none;fill-rule:nonzero;fill:rgb(33.725491%,20%,16.862746%);fill-opacity:1;" d="M 15.75 12 C 13.566406 13.855469 11.875 16.21875 10.824219 18.882812 C 9.730469 22.558594 10.199219 27.09375 9.335938 27.640625 C 8.085938 28.421875 6.757812 23.730469 6.289062 23.261719 C 5.585938 22.480469 3.160156 20.445312 3.003906 20.054688 C 2.84375 19.667969 7.851562 14.191406 10.117188 13.097656 C 12.621094 11.839844 15.898438 11.683594 15.75 12 Z M 15.75 12 "/>
<path style=" stroke:none;fill-rule:nonzero;fill:rgb(26.666668%,15.686275%,13.725491%);fill-opacity:1;" d="M 12.464844 13.949219 C 9.695312 17.722656 8.140625 22.25 8.007812 26.929688 L 6.210938 23.25 C 7.558594 19.714844 9.699219 16.53125 12.464844 13.949219 Z M 12.464844 13.949219 "/>
<path style=" stroke:none;fill-rule:nonzero;fill:rgb(80.000001%,67.450982%,55.29412%);fill-opacity:1;" d="M 9.964844 27.011719 C 10.085938 27.84375 10.378906 28.640625 10.824219 29.355469 C 11.371094 29.902344 10.972656 28.886719 10.972656 28.886719 C 10.972656 28.886719 10.425781 28.574219 10.503906 26.308594 C 10.582031 24.039062 9.964844 27.011719 9.964844 27.011719 Z M 9.964844 27.011719 "/>
<path style=" stroke:none;fill-rule:nonzero;fill:rgb(80.000001%,67.450982%,55.29412%);fill-opacity:1;" d="M 38.113281 27.011719 C 37.992188 27.84375 37.699219 28.640625 37.253906 29.355469 C 36.707031 29.902344 37.105469 28.886719 37.105469 28.886719 C 37.105469 28.886719 37.652344 28.574219 37.574219 26.308594 C 37.488281 24.117188 38.113281 27.011719 38.113281 27.011719 Z M 38.113281 27.011719 "/>
<path style=" stroke:none;fill-rule:nonzero;fill:rgb(26.666668%,15.686275%,13.725491%);fill-opacity:1;" d="M 21.066406 25.679688 C 21.066406 25.550781 20.960938 25.449219 20.832031 25.449219 C 20.703125 25.449219 20.597656 25.550781 20.597656 25.679688 C 20.597656 25.8125 20.703125 25.914062 20.832031 25.914062 C 20.960938 25.914062 21.066406 25.8125 21.066406 25.679688 Z M 21.066406 25.679688 "/>
<path style=" stroke:none;fill-rule:nonzero;fill:rgb(26.666668%,15.686275%,13.725491%);fill-opacity:1;" d="M 19.503906 27.324219 C 19.503906 27.195312 19.398438 27.089844 19.269531 27.089844 C 19.140625 27.089844 19.035156 27.195312 19.035156 27.324219 C 19.035156 27.453125 19.140625 27.558594 19.269531 27.558594 C 19.398438 27.558594 19.503906 27.453125 19.503906 27.324219 Z M 19.503906 27.324219 "/>
<path style=" stroke:none;fill-rule:nonzero;fill:rgb(26.666668%,15.686275%,13.725491%);fill-opacity:1;" d="M 19.035156 25.679688 C 19.035156 25.550781 18.929688 25.449219 18.800781 25.449219 C 18.671875 25.449219 18.566406 25.550781 18.566406 25.679688 C 18.566406 25.8125 18.671875 25.914062 18.800781 25.914062 C 18.929688 25.914062 19.035156 25.8125 19.035156 25.679688 Z M 19.035156 25.679688 "/>
<path style=" stroke:none;fill-rule:nonzero;fill:rgb(26.666668%,15.686275%,13.725491%);fill-opacity:1;" d="M 27.480469 25.679688 C 27.480469 25.550781 27.375 25.449219 27.246094 25.449219 C 27.117188 25.449219 27.011719 25.550781 27.011719 25.679688 C 27.011719 25.8125 27.117188 25.914062 27.246094 25.914062 C 27.375 25.914062 27.480469 25.8125 27.480469 25.679688 Z M 27.480469 25.679688 "/>
<path style=" stroke:none;fill-rule:nonzero;fill:rgb(26.666668%,15.686275%,13.725491%);fill-opacity:1;" d="M 28.964844 27.324219 C 28.964844 27.195312 28.859375 27.089844 28.730469 27.089844 C 28.601562 27.089844 28.496094 27.195312 28.496094 27.324219 C 28.496094 27.453125 28.601562 27.558594 28.730469 27.558594 C 28.859375 27.558594 28.964844 27.453125 28.964844 27.324219 Z M 28.964844 27.324219 "/>
<path style=" stroke:none;fill-rule:nonzero;fill:rgb(26.666668%,15.686275%,13.725491%);fill-opacity:1;" d="M 29.433594 25.679688 C 29.433594 25.550781 29.328125 25.449219 29.199219 25.449219 C 29.070312 25.449219 28.964844 25.550781 28.964844 25.679688 C 28.964844 25.8125 29.070312 25.914062 29.199219 25.914062 C 29.328125 25.914062 29.433594 25.8125 29.433594 25.679688 Z M 29.433594 25.679688 "/>
</g>
</svg>
