<?xml version="1.0" encoding="UTF-8"?>
<svg xmlns="http://www.w3.org/2000/svg" xmlns:xlink="http://www.w3.org/1999/xlink" width="48px" height="48px" viewBox="0 0 48 48" version="1.1">
<g id="surface1">
<path style=" stroke:none;fill-rule:nonzero;fill:rgb(46.27451%,29.019609%,73.725492%);fill-opacity:1;" d="M 32.679688 32.335938 C 34.339844 32.164062 35.601562 30.757812 35.542969 29.066406 C 35.484375 27.378906 34.054688 26.027344 32.335938 26.027344 L 32.222656 26.027344 C 30.445312 26.085938 29.074219 27.546875 29.128906 29.292969 C 29.1875 30.136719 29.53125 30.871094 30.046875 31.375 C 28.097656 35.148438 25.121094 37.90625 20.65625 40.214844 C 17.621094 41.792969 14.46875 42.355469 11.320312 41.960938 C 8.742188 41.625 6.738281 40.496094 5.480469 38.640625 C 3.648438 35.878906 3.476562 32.898438 5.023438 29.914062 C 6.109375 27.773438 7.828125 26.195312 8.914062 25.410156 C 8.6875 24.675781 8.34375 23.4375 8.171875 22.539062 C -0.132812 28.449219 0.726562 36.445312 3.246094 40.214844 C 5.136719 43.03125 8.972656 44.777344 13.210938 44.777344 C 14.355469 44.777344 15.5 44.664062 16.644531 44.382812 C 23.976562 42.976562 29.53125 38.695312 32.679688 32.335938 Z M 42.757812 25.351562 C 38.40625 20.34375 31.992188 17.582031 24.664062 17.582031 L 23.746094 17.582031 C 23.230469 16.570312 22.144531 15.894531 20.941406 15.894531 L 20.828125 15.894531 C 19.050781 15.949219 17.675781 17.414062 17.734375 19.160156 C 17.792969 20.847656 19.222656 22.199219 20.941406 22.199219 L 21.054688 22.199219 C 22.316406 22.144531 23.402344 21.355469 23.863281 20.285156 L 24.890625 20.285156 C 29.246094 20.285156 33.367188 21.523438 37.089844 23.945312 C 39.953125 25.804688 42.015625 28.222656 43.160156 31.152344 C 44.132812 33.515625 44.074219 35.824219 43.046875 37.796875 C 41.441406 40.777344 38.75 42.410156 35.199219 42.410156 C 32.910156 42.410156 30.734375 41.734375 29.589844 41.230469 C 28.957031 41.792969 27.8125 42.691406 27.011719 43.257812 C 29.472656 44.382812 31.992188 45 34.398438 45 C 39.894531 45 43.960938 42.015625 45.507812 39.035156 C 47.167969 35.769531 47.054688 30.136719 42.757812 25.351562 Z M 13.667969 33.289062 C 13.726562 34.980469 15.15625 36.332031 16.875 36.332031 L 16.988281 36.332031 C 18.765625 36.273438 20.140625 34.8125 20.082031 33.066406 C 20.023438 31.375 18.59375 30.027344 16.875 30.027344 L 16.761719 30.027344 C 16.644531 30.027344 16.472656 30.027344 16.359375 30.082031 C 14.011719 26.253906 13.039062 22.085938 13.382812 17.582031 C 13.609375 14.207031 14.757812 11.277344 16.761719 8.855469 C 18.421875 6.773438 21.628906 5.761719 23.804688 5.703125 C 29.875 5.589844 32.449219 13.023438 32.621094 16.007812 C 33.367188 16.175781 34.628906 16.570312 35.484375 16.851562 C 34.800781 7.730469 29.074219 3 23.574219 3 C 18.421875 3 13.667969 6.660156 11.777344 12.066406 C 9.144531 19.273438 10.863281 26.195312 14.070312 31.660156 C 13.78125 32.050781 13.609375 32.671875 13.667969 33.289062 Z M 13.667969 33.289062 "/>
</g>
</svg>
