<?xml version="1.0" encoding="UTF-8"?>
<svg xmlns="http://www.w3.org/2000/svg" xmlns:xlink="http://www.w3.org/1999/xlink" width="48px" height="48px" viewBox="0 0 48 48" version="1.1">
<g id="surface1">
<path style=" stroke:none;fill-rule:nonzero;fill:rgb(19.215687%,47.058824%,77.64706%);fill-opacity:1;" d="M 4.96875 3 L 43.03125 3 C 44.117188 3 45 3.882812 45 4.96875 L 45 43.03125 C 45 44.117188 44.117188 45 43.03125 45 L 4.96875 45 C 3.882812 45 3 44.117188 3 43.03125 L 3 4.96875 C 3 3.882812 3.882812 3 4.96875 3 Z M 4.96875 3 "/>
<path style=" stroke:none;fill-rule:evenodd;fill:rgb(100%,100%,100%);fill-opacity:1;" d="M 27.367188 35.636719 L 27.367188 40.242188 C 28.203125 40.652344 29.09375 40.945312 30.011719 41.101562 C 31.074219 41.300781 32.152344 41.394531 33.234375 41.390625 C 34.285156 41.394531 35.335938 41.289062 36.363281 41.074219 C 37.289062 40.886719 38.171875 40.53125 38.96875 40.023438 C 39.707031 39.546875 40.3125 38.894531 40.738281 38.125 C 41.5 36.53125 41.597656 34.703125 41.015625 33.035156 C 40.773438 32.410156 40.40625 31.839844 39.941406 31.359375 C 39.441406 30.847656 38.875 30.402344 38.257812 30.042969 C 37.546875 29.625 36.804688 29.257812 36.042969 28.941406 C 35.441406 28.695312 34.902344 28.453125 34.421875 28.214844 C 33.996094 28.011719 33.585938 27.773438 33.203125 27.496094 C 32.902344 27.285156 32.640625 27.023438 32.429688 26.722656 C 32.246094 26.445312 32.152344 26.125 32.15625 25.792969 C 32.152344 25.492188 32.238281 25.191406 32.398438 24.9375 C 32.578125 24.667969 32.8125 24.445312 33.089844 24.285156 C 33.425781 24.085938 33.792969 23.941406 34.175781 23.859375 C 34.648438 23.753906 35.128906 23.703125 35.613281 23.710938 C 36.015625 23.710938 36.421875 23.738281 36.824219 23.796875 C 37.257812 23.855469 37.6875 23.941406 38.109375 24.0625 C 38.535156 24.179688 38.957031 24.332031 39.363281 24.511719 C 39.753906 24.6875 40.132812 24.898438 40.488281 25.144531 L 40.488281 20.851562 C 39.75 20.570312 38.980469 20.371094 38.199219 20.25 C 37.257812 20.113281 36.304688 20.046875 35.351562 20.054688 C 34.308594 20.050781 33.269531 20.167969 32.253906 20.410156 C 31.335938 20.617188 30.464844 20.992188 29.679688 21.507812 C 28.949219 21.996094 28.347656 22.648438 27.925781 23.414062 C 27.472656 24.265625 27.25 25.21875 27.277344 26.183594 C 27.246094 27.457031 27.664062 28.699219 28.460938 29.691406 C 29.4375 30.792969 30.671875 31.636719 32.054688 32.152344 C 32.683594 32.410156 33.269531 32.664062 33.816406 32.914062 C 34.308594 33.132812 34.78125 33.394531 35.230469 33.691406 C 35.589844 33.925781 35.910156 34.222656 36.167969 34.566406 C 36.394531 34.878906 36.515625 35.257812 36.511719 35.644531 C 36.515625 35.9375 36.441406 36.222656 36.296875 36.472656 C 36.136719 36.746094 35.914062 36.972656 35.644531 37.136719 C 35.308594 37.339844 34.941406 37.488281 34.554688 37.574219 C 34.054688 37.683594 33.542969 37.738281 33.027344 37.730469 C 32.019531 37.730469 31.019531 37.550781 30.074219 37.207031 C 29.085938 36.847656 28.167969 36.316406 27.367188 35.636719 Z M 19.636719 24.179688 L 25.636719 24.179688 L 25.636719 20.390625 L 8.90625 20.390625 L 8.90625 24.179688 L 14.878906 24.179688 L 14.878906 41.0625 L 19.636719 41.0625 Z M 19.636719 24.179688 "/>
</g>
</svg>
